{
	"patcher" : 	{
		"fileversion" : 1,
		"rect" : [ 125.0, 199.0, 901.0, 429.0 ],
		"bglocked" : 0,
		"defrect" : [ 125.0, 199.0, 901.0, 429.0 ],
		"openrect" : [ 0.0, 0.0, 0.0, 0.0 ],
		"openinpresentation" : 0,
		"default_fontsize" : 12.0,
		"default_fontface" : 0,
		"default_fontname" : "Arial",
		"gridonopen" : 0,
		"gridsize" : [ 15.0, 15.0 ],
		"gridsnaponopen" : 0,
		"toolbarvisible" : 1,
		"boxanimatetime" : 200,
		"imprint" : 0,
		"metadata" : [  ],
		"boxes" : [ 			{
				"box" : 				{
					"maxclass" : "comment",
					"text" : "Double click for more info on s and r",
					"fontsize" : 12.0,
					"id" : "obj-3",
					"fontname" : "Arial",
					"numinlets" : 1,
					"patching_rect" : [ 644.0, 340.0, 204.0, 20.0 ],
					"numoutlets" : 0
				}

			}
, 			{
				"box" : 				{
					"maxclass" : "newobj",
					"text" : "p send and receive",
					"fontsize" : 12.0,
					"id" : "obj-2",
					"fontname" : "Arial",
					"numinlets" : 0,
					"patching_rect" : [ 689.0, 368.0, 112.0, 20.0 ],
					"numoutlets" : 0,
					"patcher" : 					{
						"fileversion" : 1,
						"rect" : [ 25.0, 69.0, 467.0, 259.0 ],
						"bgcolor" : [ 0.858824, 0.921569, 1.0, 1.0 ],
						"bglocked" : 0,
						"defrect" : [ 25.0, 69.0, 467.0, 259.0 ],
						"openrect" : [ 0.0, 0.0, 0.0, 0.0 ],
						"openinpresentation" : 0,
						"default_fontsize" : 12.0,
						"default_fontface" : 0,
						"default_fontname" : "Arial",
						"gridonopen" : 0,
						"gridsize" : [ 15.0, 15.0 ],
						"gridsnaponopen" : 0,
						"toolbarvisible" : 1,
						"boxanimatetime" : 200,
						"imprint" : 0,
						"metadata" : [  ],
						"boxes" : [ 							{
								"box" : 								{
									"maxclass" : "comment",
									"text" : "Why use s and r to pass around messages to and from the Make Controller?\n\nWell, there's only one Make Controller so there's only one mc.usb object.  But it's often not very convenient to connect patch cables between mc.usb and all the different places you want to use it (in different windows, etc).\n\nSo, if you stick to the convention used in the help patches and always use send and receive objects with the same names, even if your new mc.usb is not successfully created (because another one already exists), you'll still be getting good info to and from it via the first mc.usb that was created successfully.",
									"linecount" : 11,
									"fontsize" : 12.0,
									"id" : "obj-5",
									"fontname" : "Arial",
									"numinlets" : 1,
									"patching_rect" : [ 22.0, 74.0, 420.0, 158.0 ],
									"numoutlets" : 0
								}

							}
, 							{
								"box" : 								{
									"maxclass" : "comment",
									"text" : "Send and Receive",
									"fontsize" : 26.0,
									"id" : "obj-4",
									"fontname" : "Arial",
									"numinlets" : 1,
									"patching_rect" : [ 22.0, 33.0, 226.0, 36.0 ],
									"numoutlets" : 0
								}

							}
, 							{
								"box" : 								{
									"maxclass" : "newobj",
									"text" : "bgcolor 219 235 255",
									"hidden" : 1,
									"fontsize" : 12.0,
									"id" : "obj-1",
									"fontname" : "Arial",
									"numinlets" : 4,
									"patching_rect" : [ 22.0, 245.0, 120.0, 20.0 ],
									"numoutlets" : 0
								}

							}
 ],
						"lines" : [  ]
					}
,
					"saved_object_attributes" : 					{
						"fontface" : 0,
						"default_fontsize" : 12.0,
						"fontsize" : 12.0,
						"fontname" : "Arial",
						"default_fontface" : 0,
						"default_fontname" : "Arial",
						"globalpatchername" : ""
					}

				}

			}
, 			{
				"box" : 				{
					"maxclass" : "newobj",
					"text" : "r from-mc-usb",
					"fontsize" : 12.0,
					"outlettype" : [ "" ],
					"id" : "obj-1",
					"fontname" : "Arial",
					"numinlets" : 0,
					"patching_rect" : [ 17.0, 308.0, 85.0, 20.0 ],
					"numoutlets" : 1
				}

			}
, 			{
				"box" : 				{
					"maxclass" : "comment",
					"text" : "Only one mc.usb object is required/allowed per patch - use the send (s) and receive (r) objects to pass info to and from it.",
					"linecount" : 4,
					"fontsize" : 12.0,
					"id" : "obj-57",
					"fontname" : "Arial",
					"numinlets" : 1,
					"patching_rect" : [ 18.0, 235.0, 192.0, 62.0 ],
					"numoutlets" : 0
				}

			}
, 			{
				"box" : 				{
					"maxclass" : "newobj",
					"text" : "r to-mc-usb",
					"fontsize" : 12.0,
					"outlettype" : [ "" ],
					"id" : "obj-60",
					"fontname" : "Arial",
					"numinlets" : 0,
					"patching_rect" : [ 239.0, 241.0, 71.0, 20.0 ],
					"numoutlets" : 1
				}

			}
, 			{
				"box" : 				{
					"maxclass" : "newobj",
					"text" : "s from-mc-usb",
					"fontsize" : 12.0,
					"id" : "obj-59",
					"fontname" : "Arial",
					"numinlets" : 1,
					"patching_rect" : [ 239.0, 292.0, 87.0, 20.0 ],
					"numoutlets" : 0
				}

			}
, 			{
				"box" : 				{
					"maxclass" : "newobj",
					"text" : "mc.usb",
					"fontsize" : 12.0,
					"outlettype" : [ "" ],
					"id" : "obj-58",
					"fontname" : "Arial",
					"numinlets" : 1,
					"patching_rect" : [ 239.0, 267.0, 51.0, 20.0 ],
					"numoutlets" : 1
				}

			}
, 			{
				"box" : 				{
					"maxclass" : "panel",
					"bgcolor" : [ 0.807843, 0.807843, 0.807843, 1.0 ],
					"id" : "obj-61",
					"numinlets" : 1,
					"patching_rect" : [ 229.0, 229.0, 110.0, 97.0 ],
					"numoutlets" : 0
				}

			}
, 			{
				"box" : 				{
					"maxclass" : "comment",
					"varname" : "autohelp_see_title",
					"text" : "See Also:",
					"fontface" : 1,
					"fontsize" : 11.595187,
					"id" : "obj-39",
					"fontname" : "Arial",
					"numinlets" : 1,
					"patching_rect" : [ 701.0, 215.0, 100.0, 20.0 ],
					"numoutlets" : 0
				}

			}
, 			{
				"box" : 				{
					"maxclass" : "umenu",
					"varname" : "autohelp_see_menu",
					"fontsize" : 11.595187,
					"outlettype" : [ "int", "", "" ],
					"items" : [ "(Objects:)", ",", "mc.analogin", ",", "mc.appled", ",", "mc.digitalout", ",", "mc.dipswitch", ",", "mc.motor", ",", "mc.servo", ",", "mc.stepper" ],
					"id" : "obj-40",
					"fontname" : "Arial",
					"numinlets" : 1,
					"types" : [  ],
					"patching_rect" : [ 701.0, 235.0, 130.0, 20.0 ],
					"numoutlets" : 3
				}

			}
, 			{
				"box" : 				{
					"maxclass" : "newobj",
					"text" : "prepend help",
					"hidden" : 1,
					"fontsize" : 12.0,
					"outlettype" : [ "" ],
					"id" : "obj-54",
					"fontname" : "Arial",
					"numinlets" : 1,
					"patching_rect" : [ 757.0, 266.0, 83.0, 20.0 ],
					"numoutlets" : 1
				}

			}
, 			{
				"box" : 				{
					"maxclass" : "newobj",
					"text" : "pcontrol",
					"hidden" : 1,
					"fontsize" : 12.0,
					"outlettype" : [ "" ],
					"id" : "obj-55",
					"fontname" : "Arial",
					"numinlets" : 1,
					"patching_rect" : [ 757.0, 291.0, 56.0, 20.0 ],
					"numoutlets" : 1
				}

			}
, 			{
				"box" : 				{
					"maxclass" : "newobj",
					"text" : "t b",
					"hidden" : 1,
					"fontsize" : 9.0,
					"outlettype" : [ "bang" ],
					"id" : "obj-41",
					"fontname" : "Arial",
					"numinlets" : 1,
					"patching_rect" : [ 752.0, 237.0, 19.0, 17.0 ],
					"numoutlets" : 1
				}

			}
, 			{
				"box" : 				{
					"maxclass" : "comment",
					"text" : "Check the simple examples to the left, and investigate the example & help patches for more samples.",
					"linecount" : 3,
					"fontsize" : 12.0,
					"id" : "obj-11",
					"fontname" : "Arial",
					"numinlets" : 1,
					"patching_rect" : [ 371.0, 331.0, 238.0, 48.0 ],
					"numoutlets" : 0
				}

			}
, 			{
				"box" : 				{
					"maxclass" : "comment",
					"text" : "To read from the board, send a message without a value, and the board will send you a message back with the value, as in the analogin example to the left.",
					"linecount" : 4,
					"fontsize" : 12.0,
					"id" : "obj-12",
					"fontname" : "Arial",
					"numinlets" : 1,
					"patching_rect" : [ 371.0, 263.0, 239.0, 62.0 ],
					"numoutlets" : 0
				}

			}
, 			{
				"box" : 				{
					"maxclass" : "comment",
					"text" : "/subsystem/index/property value",
					"fontface" : 1,
					"fontsize" : 12.0,
					"id" : "obj-13",
					"fontname" : "Arial",
					"numinlets" : 1,
					"patching_rect" : [ 371.0, 243.0, 252.0, 20.0 ],
					"numoutlets" : 0
				}

			}
, 			{
				"box" : 				{
					"maxclass" : "comment",
					"text" : "The Make Controller is organized into several \"subsystems\" - LEDs, analog ins, servos, etc. There's usually more than one device in each of those subsystems, so we also need to specify which servo, or which LED we want to control. \n\nLastly there are different properties of each device that we might be interested in - the position or speed of a servo.\n\nSo, to send the board a message it should be in the form:",
					"linecount" : 12,
					"fontsize" : 12.0,
					"id" : "obj-15",
					"fontname" : "Arial",
					"numinlets" : 1,
					"patching_rect" : [ 371.0, 72.0, 272.0, 172.0 ],
					"numoutlets" : 0
				}

			}
, 			{
				"box" : 				{
					"maxclass" : "newobj",
					"text" : "print \"USB message\"",
					"fontsize" : 12.0,
					"id" : "obj-16",
					"fontname" : "Arial",
					"numinlets" : 1,
					"patching_rect" : [ 17.0, 356.0, 128.0, 20.0 ],
					"numoutlets" : 0
				}

			}
, 			{
				"box" : 				{
					"maxclass" : "number",
					"bgcolor" : [ 0.866667, 0.866667, 0.866667, 1.0 ],
					"htextcolor" : [ 0.870588, 0.870588, 0.870588, 1.0 ],
					"fontsize" : 12.0,
					"outlettype" : [ "int", "bang" ],
					"triscale" : 0.9,
					"id" : "obj-17",
					"fontname" : "Arial",
					"numinlets" : 1,
					"patching_rect" : [ 150.0, 393.0, 45.0, 20.0 ],
					"numoutlets" : 2
				}

			}
, 			{
				"box" : 				{
					"maxclass" : "newobj",
					"text" : "osc-route /analogin/7/value",
					"fontsize" : 12.0,
					"outlettype" : [ "list", "list" ],
					"id" : "obj-18",
					"fontname" : "Arial",
					"numinlets" : 1,
					"patching_rect" : [ 150.0, 356.0, 160.0, 20.0 ],
					"numoutlets" : 2
				}

			}
, 			{
				"box" : 				{
					"maxclass" : "message",
					"text" : "/analogin/7/value",
					"fontsize" : 12.0,
					"outlettype" : [ "" ],
					"id" : "obj-19",
					"fontname" : "Arial",
					"numinlets" : 2,
					"patching_rect" : [ 268.0, 151.0, 101.0, 18.0 ],
					"numoutlets" : 1
				}

			}
, 			{
				"box" : 				{
					"maxclass" : "message",
					"text" : "/servo/0/position $1",
					"fontsize" : 12.0,
					"outlettype" : [ "" ],
					"id" : "obj-20",
					"fontname" : "Arial",
					"numinlets" : 2,
					"patching_rect" : [ 141.0, 151.0, 121.0, 18.0 ],
					"numoutlets" : 1
				}

			}
, 			{
				"box" : 				{
					"maxclass" : "dial",
					"bgcolor" : [ 0.866667, 0.866667, 0.866667, 1.0 ],
					"outlettype" : [ "float" ],
					"outlinecolor" : [ 0.882353, 0.882353, 0.882353, 1.0 ],
					"id" : "obj-21",
					"size" : 1023,
					"fgcolor" : [ 0.666667, 0.666667, 0.666667, 1.0 ],
					"numinlets" : 1,
					"needlecolor" : [ 0.0, 0.0, 0.0, 1.0 ],
					"patching_rect" : [ 141.0, 105.0, 40.0, 40.0 ],
					"vtracking" : 0,
					"numoutlets" : 1
				}

			}
, 			{
				"box" : 				{
					"maxclass" : "toggle",
					"outlettype" : [ "int" ],
					"id" : "obj-22",
					"numinlets" : 1,
					"patching_rect" : [ 21.0, 120.0, 20.0, 20.0 ],
					"numoutlets" : 1
				}

			}
, 			{
				"box" : 				{
					"maxclass" : "message",
					"text" : "/appled/0/state $1",
					"fontsize" : 12.0,
					"outlettype" : [ "" ],
					"id" : "obj-23",
					"fontname" : "Arial",
					"numinlets" : 2,
					"patching_rect" : [ 21.0, 152.0, 111.0, 18.0 ],
					"numoutlets" : 1
				}

			}
, 			{
				"box" : 				{
					"maxclass" : "newobj",
					"text" : "s to-mc-usb",
					"fontsize" : 12.0,
					"id" : "obj-24",
					"fontname" : "Arial",
					"numinlets" : 1,
					"patching_rect" : [ 21.0, 211.0, 73.0, 20.0 ],
					"numoutlets" : 0
				}

			}
, 			{
				"box" : 				{
					"maxclass" : "comment",
					"text" : "mc.usb",
					"fontsize" : 18.0,
					"frgb" : [ 0.082353, 0.219608, 0.035294, 1.0 ],
					"id" : "obj-25",
					"fontname" : "Arial",
					"numinlets" : 1,
					"patching_rect" : [ 12.0, 15.0, 126.0, 27.0 ],
					"numoutlets" : 0,
					"textcolor" : [ 0.082353, 0.219608, 0.035294, 1.0 ]
				}

			}
, 			{
				"box" : 				{
					"maxclass" : "comment",
					"text" : "Send and receive OSC messages via USB.",
					"fontsize" : 12.0,
					"id" : "obj-26",
					"fontname" : "Arial",
					"numinlets" : 1,
					"patching_rect" : [ 12.0, 40.0, 384.0, 20.0 ],
					"numoutlets" : 0
				}

			}
, 			{
				"box" : 				{
					"maxclass" : "panel",
					"bgcolor" : [ 0.905882, 0.905882, 0.905882, 1.0 ],
					"id" : "obj-27",
					"numinlets" : 1,
					"patching_rect" : [ 7.0, 10.0, 623.0, 57.0 ],
					"rounded" : 0,
					"numoutlets" : 0
				}

			}
, 			{
				"box" : 				{
					"maxclass" : "newobj",
					"text" : "t b",
					"hidden" : 1,
					"fontsize" : 12.0,
					"outlettype" : [ "bang" ],
					"id" : "obj-28",
					"fontname" : "Arial",
					"numinlets" : 1,
					"patching_rect" : [ 924.0, 273.0, 22.0, 20.0 ],
					"numoutlets" : 1
				}

			}
, 			{
				"box" : 				{
					"maxclass" : "newobj",
					"text" : "t b",
					"hidden" : 1,
					"fontsize" : 12.0,
					"outlettype" : [ "bang" ],
					"id" : "obj-29",
					"fontname" : "Arial",
					"numinlets" : 1,
					"patching_rect" : [ 946.0, 230.0, 22.0, 20.0 ],
					"numoutlets" : 1
				}

			}
, 			{
				"box" : 				{
					"maxclass" : "newobj",
					"text" : "t b",
					"hidden" : 1,
					"fontsize" : 12.0,
					"outlettype" : [ "bang" ],
					"id" : "obj-30",
					"fontname" : "Arial",
					"numinlets" : 1,
					"patching_rect" : [ 967.0, 171.0, 22.0, 20.0 ],
					"numoutlets" : 1
				}

			}
, 			{
				"box" : 				{
					"maxclass" : "message",
					"text" : ";\rmax launch_browser http://www.makingthings.com/forum",
					"linecount" : 2,
					"hidden" : 1,
					"fontsize" : 12.0,
					"outlettype" : [ "" ],
					"id" : "obj-31",
					"fontname" : "Arial",
					"numinlets" : 2,
					"patching_rect" : [ 1030.0, 346.0, 370.0, 32.0 ],
					"numoutlets" : 1
				}

			}
, 			{
				"box" : 				{
					"maxclass" : "message",
					"text" : ";\rmax launch_browser http://www.makingthings.com/ref/firmware/html/group___o_s_c.html",
					"linecount" : 3,
					"hidden" : 1,
					"fontsize" : 12.0,
					"outlettype" : [ "" ],
					"id" : "obj-32",
					"fontname" : "Arial",
					"numinlets" : 2,
					"patching_rect" : [ 1050.0, 264.0, 369.0, 46.0 ],
					"numoutlets" : 1
				}

			}
, 			{
				"box" : 				{
					"maxclass" : "message",
					"text" : ";\rmax launch_browser http://www.makingthings.com/documentation/tutorial/max-msp",
					"linecount" : 3,
					"hidden" : 1,
					"fontsize" : 12.0,
					"outlettype" : [ "" ],
					"id" : "obj-33",
					"fontname" : "Arial",
					"numinlets" : 2,
					"patching_rect" : [ 1068.0, 206.0, 341.0, 46.0 ],
					"numoutlets" : 1
				}

			}
, 			{
				"box" : 				{
					"maxclass" : "message",
					"text" : "Make Controller Kit Discussion Forum",
					"fontsize" : 12.0,
					"outlettype" : [ "" ],
					"id" : "obj-34",
					"fontname" : "Arial",
					"numinlets" : 2,
					"patching_rect" : [ 658.0, 176.0, 219.0, 18.0 ],
					"numoutlets" : 1
				}

			}
, 			{
				"box" : 				{
					"maxclass" : "message",
					"text" : "Make Controller Kit OSC Reference",
					"fontsize" : 12.0,
					"outlettype" : [ "" ],
					"id" : "obj-35",
					"fontname" : "Arial",
					"numinlets" : 2,
					"patching_rect" : [ 658.0, 152.0, 203.0, 18.0 ],
					"numoutlets" : 1
				}

			}
, 			{
				"box" : 				{
					"maxclass" : "message",
					"text" : "Make Controller Max/MSP Tutorial",
					"fontsize" : 12.0,
					"outlettype" : [ "" ],
					"id" : "obj-36",
					"fontname" : "Arial",
					"numinlets" : 2,
					"patching_rect" : [ 658.0, 130.0, 207.0, 18.0 ],
					"numoutlets" : 1
				}

			}
, 			{
				"box" : 				{
					"maxclass" : "comment",
					"text" : "Check the MakingThings website for more info and reference material:",
					"linecount" : 2,
					"fontsize" : 12.0,
					"id" : "obj-37",
					"fontname" : "Arial",
					"numinlets" : 1,
					"patching_rect" : [ 659.0, 99.0, 221.0, 34.0 ],
					"numoutlets" : 0
				}

			}
, 			{
				"box" : 				{
					"maxclass" : "fpic",
					"id" : "obj-38",
					"numinlets" : 1,
					"patching_rect" : [ 639.0, 14.0, 225.0, 82.0 ],
					"pic" : "logo.png",
					"numoutlets" : 0
				}

			}
, 			{
				"box" : 				{
					"maxclass" : "panel",
					"varname" : "autohelp_see_panel",
					"bgcolor" : [ 0.85, 0.85, 0.85, 0.75 ],
					"border" : 2,
					"bordercolor" : [ 0.5, 0.5, 0.5, 0.75 ],
					"background" : 1,
					"id" : "obj-56",
					"numinlets" : 1,
					"patching_rect" : [ 696.0, 211.0, 140.0, 50.0 ],
					"numoutlets" : 0
				}

			}
 ],
		"lines" : [ 			{
				"patchline" : 				{
					"source" : [ "obj-40", 1 ],
					"destination" : [ "obj-54", 0 ],
					"hidden" : 1,
					"midpoints" : [  ]
				}

			}
, 			{
				"patchline" : 				{
					"source" : [ "obj-54", 0 ],
					"destination" : [ "obj-55", 0 ],
					"hidden" : 1,
					"midpoints" : [  ]
				}

			}
, 			{
				"patchline" : 				{
					"source" : [ "obj-30", 0 ],
					"destination" : [ "obj-33", 0 ],
					"hidden" : 1,
					"midpoints" : [  ]
				}

			}
, 			{
				"patchline" : 				{
					"source" : [ "obj-29", 0 ],
					"destination" : [ "obj-32", 0 ],
					"hidden" : 1,
					"midpoints" : [  ]
				}

			}
, 			{
				"patchline" : 				{
					"source" : [ "obj-28", 0 ],
					"destination" : [ "obj-31", 0 ],
					"hidden" : 1,
					"midpoints" : [  ]
				}

			}
, 			{
				"patchline" : 				{
					"source" : [ "obj-36", 0 ],
					"destination" : [ "obj-30", 0 ],
					"hidden" : 1,
					"midpoints" : [  ]
				}

			}
, 			{
				"patchline" : 				{
					"source" : [ "obj-35", 0 ],
					"destination" : [ "obj-29", 0 ],
					"hidden" : 1,
					"midpoints" : [  ]
				}

			}
, 			{
				"patchline" : 				{
					"source" : [ "obj-34", 0 ],
					"destination" : [ "obj-28", 0 ],
					"hidden" : 1,
					"midpoints" : [  ]
				}

			}
, 			{
				"patchline" : 				{
					"source" : [ "obj-18", 0 ],
					"destination" : [ "obj-17", 0 ],
					"hidden" : 0,
					"midpoints" : [  ]
				}

			}
, 			{
				"patchline" : 				{
					"source" : [ "obj-21", 0 ],
					"destination" : [ "obj-20", 0 ],
					"hidden" : 0,
					"midpoints" : [  ]
				}

			}
, 			{
				"patchline" : 				{
					"source" : [ "obj-22", 0 ],
					"destination" : [ "obj-23", 0 ],
					"hidden" : 0,
					"midpoints" : [  ]
				}

			}
, 			{
				"patchline" : 				{
					"source" : [ "obj-60", 0 ],
					"destination" : [ "obj-58", 0 ],
					"hidden" : 0,
					"midpoints" : [  ]
				}

			}
, 			{
				"patchline" : 				{
					"source" : [ "obj-58", 0 ],
					"destination" : [ "obj-59", 0 ],
					"hidden" : 0,
					"midpoints" : [  ]
				}

			}
, 			{
				"patchline" : 				{
					"source" : [ "obj-23", 0 ],
					"destination" : [ "obj-24", 0 ],
					"hidden" : 0,
					"midpoints" : [  ]
				}

			}
, 			{
				"patchline" : 				{
					"source" : [ "obj-20", 0 ],
					"destination" : [ "obj-24", 0 ],
					"hidden" : 0,
					"midpoints" : [ 150.5, 184.0, 30.5, 184.0 ]
				}

			}
, 			{
				"patchline" : 				{
					"source" : [ "obj-19", 0 ],
					"destination" : [ "obj-24", 0 ],
					"hidden" : 0,
					"midpoints" : [ 277.5, 199.0, 30.5, 199.0 ]
				}

			}
, 			{
				"patchline" : 				{
					"source" : [ "obj-1", 0 ],
					"destination" : [ "obj-16", 0 ],
					"hidden" : 0,
					"midpoints" : [  ]
				}

			}
, 			{
				"patchline" : 				{
					"source" : [ "obj-1", 0 ],
					"destination" : [ "obj-18", 0 ],
					"hidden" : 0,
					"midpoints" : [ 26.5, 344.0, 159.5, 344.0 ]
				}

			}
 ]
	}

}
