{
	"patcher" : 	{
		"fileversion" : 1,
		"rect" : [ 217.0, 130.0, 946.0, 455.0 ],
		"bglocked" : 0,
		"defrect" : [ 217.0, 130.0, 946.0, 455.0 ],
		"openrect" : [ 0.0, 0.0, 0.0, 0.0 ],
		"openinpresentation" : 0,
		"default_fontsize" : 12.0,
		"default_fontface" : 0,
		"default_fontname" : "Arial",
		"gridonopen" : 0,
		"gridsize" : [ 15.0, 15.0 ],
		"gridsnaponopen" : 0,
		"toolbarvisible" : 1,
		"boxanimatetime" : 200,
		"imprint" : 0,
		"metadata" : [  ],
		"boxes" : [ 			{
				"box" : 				{
					"maxclass" : "newobj",
					"text" : "t b",
					"hidden" : 1,
					"fontsize" : 12.0,
					"outlettype" : [ "bang" ],
					"presentation_rect" : [ 985.0, 265.0, 0.0, 0.0 ],
					"id" : "obj-44",
					"fontname" : "Arial",
					"numinlets" : 1,
					"patching_rect" : [ 981.0, 289.0, 22.0, 20.0 ],
					"numoutlets" : 1
				}

			}
, 			{
				"box" : 				{
					"maxclass" : "message",
					"text" : ";\rmax launch_browser http://www.makingthings.com/documentation/how-to/connect-a-dc-motor",
					"linecount" : 3,
					"hidden" : 1,
					"fontsize" : 12.0,
					"outlettype" : [ "" ],
					"presentation_rect" : [ 1007.0, 302.0, 0.0, 0.0 ],
					"id" : "obj-45",
					"fontname" : "Arial",
					"numinlets" : 2,
					"patching_rect" : [ 1009.0, 339.0, 407.0, 46.0 ],
					"numoutlets" : 1
				}

			}
, 			{
				"box" : 				{
					"maxclass" : "message",
					"text" : "DC Motor How-To",
					"fontsize" : 12.0,
					"outlettype" : [ "" ],
					"presentation_rect" : [ 721.0, 197.0, 0.0, 0.0 ],
					"id" : "obj-46",
					"fontname" : "Arial",
					"numinlets" : 2,
					"patching_rect" : [ 721.0, 195.0, 107.0, 18.0 ],
					"numoutlets" : 1
				}

			}
, 			{
				"box" : 				{
					"maxclass" : "comment",
					"text" : "Only one mc.usb object is required/allowed per patch - use the send (s) and receive (r) objects to pass info to and from it.",
					"linecount" : 4,
					"fontsize" : 12.0,
					"id" : "obj-57",
					"fontname" : "Arial",
					"numinlets" : 1,
					"patching_rect" : [ 558.0, 350.0, 192.0, 62.0 ],
					"numoutlets" : 0
				}

			}
, 			{
				"box" : 				{
					"maxclass" : "newobj",
					"text" : "r to-mc-usb",
					"fontsize" : 12.0,
					"outlettype" : [ "" ],
					"id" : "obj-60",
					"fontname" : "Arial",
					"numinlets" : 0,
					"patching_rect" : [ 762.0, 345.0, 71.0, 20.0 ],
					"numoutlets" : 1
				}

			}
, 			{
				"box" : 				{
					"maxclass" : "newobj",
					"text" : "s from-mc-usb",
					"fontsize" : 12.0,
					"id" : "obj-59",
					"fontname" : "Arial",
					"numinlets" : 1,
					"patching_rect" : [ 762.0, 396.0, 87.0, 20.0 ],
					"numoutlets" : 0
				}

			}
, 			{
				"box" : 				{
					"maxclass" : "newobj",
					"text" : "mc.usb",
					"fontsize" : 12.0,
					"outlettype" : [ "" ],
					"id" : "obj-58",
					"fontname" : "Arial",
					"numinlets" : 1,
					"patching_rect" : [ 762.0, 371.0, 51.0, 20.0 ],
					"numoutlets" : 1
				}

			}
, 			{
				"box" : 				{
					"maxclass" : "panel",
					"bgcolor" : [ 0.807843, 0.807843, 0.807843, 1.0 ],
					"id" : "obj-61",
					"numinlets" : 1,
					"patching_rect" : [ 752.0, 333.0, 110.0, 97.0 ],
					"numoutlets" : 0
				}

			}
, 			{
				"box" : 				{
					"maxclass" : "comment",
					"text" : "drag the sliders to set the speed, and click the toggles above the 'direction' message boxes to change the direction.",
					"linecount" : 5,
					"fontsize" : 12.0,
					"id" : "obj-1",
					"fontname" : "Arial",
					"numinlets" : 1,
					"patching_rect" : [ 17.0, 199.0, 147.0, 75.0 ],
					"numoutlets" : 0
				}

			}
, 			{
				"box" : 				{
					"maxclass" : "comment",
					"text" : "mc.motor accepts two kinds of input: integers and messages. \n\nintegers are used to set the speed and 'direction' sets whether the motor is running in forward or reverse.",
					"linecount" : 7,
					"fontsize" : 12.0,
					"id" : "obj-2",
					"fontname" : "Arial",
					"numinlets" : 1,
					"patching_rect" : [ 17.0, 87.0, 175.0, 103.0 ],
					"numoutlets" : 0
				}

			}
, 			{
				"box" : 				{
					"maxclass" : "comment",
					"text" : "1023 -",
					"fontsize" : 12.0,
					"id" : "obj-3",
					"fontname" : "Arial",
					"numinlets" : 1,
					"patching_rect" : [ 168.0, 68.0, 54.0, 20.0 ],
					"numoutlets" : 0
				}

			}
, 			{
				"box" : 				{
					"maxclass" : "message",
					"text" : "set 1",
					"hidden" : 1,
					"fontsize" : 12.0,
					"outlettype" : [ "" ],
					"id" : "obj-4",
					"fontname" : "Arial",
					"numinlets" : 2,
					"patching_rect" : [ 404.0, 126.0, 42.0, 18.0 ],
					"numoutlets" : 1
				}

			}
, 			{
				"box" : 				{
					"maxclass" : "newobj",
					"text" : "loadbang",
					"hidden" : 1,
					"fontsize" : 12.0,
					"outlettype" : [ "bang" ],
					"id" : "obj-5",
					"fontname" : "Arial",
					"numinlets" : 1,
					"patching_rect" : [ 404.0, 100.0, 61.0, 20.0 ],
					"numoutlets" : 1
				}

			}
, 			{
				"box" : 				{
					"maxclass" : "toggle",
					"outlettype" : [ "int" ],
					"id" : "obj-6",
					"numinlets" : 1,
					"patching_rect" : [ 647.0, 195.0, 25.0, 25.0 ],
					"numoutlets" : 1
				}

			}
, 			{
				"box" : 				{
					"maxclass" : "message",
					"text" : "direction $1",
					"fontsize" : 12.0,
					"outlettype" : [ "" ],
					"id" : "obj-7",
					"fontname" : "Arial",
					"numinlets" : 2,
					"patching_rect" : [ 647.0, 224.0, 72.0, 18.0 ],
					"numoutlets" : 1
				}

			}
, 			{
				"box" : 				{
					"maxclass" : "number",
					"bgcolor" : [ 0.866667, 0.866667, 0.866667, 1.0 ],
					"htextcolor" : [ 0.870588, 0.870588, 0.870588, 1.0 ],
					"fontsize" : 12.0,
					"outlettype" : [ "int", "bang" ],
					"triscale" : 0.9,
					"id" : "obj-8",
					"fontname" : "Arial",
					"numinlets" : 1,
					"patching_rect" : [ 596.0, 224.0, 37.0, 20.0 ],
					"numoutlets" : 2
				}

			}
, 			{
				"box" : 				{
					"maxclass" : "slider",
					"orientation" : 2,
					"outlettype" : [ "" ],
					"id" : "obj-9",
					"size" : 1024.0,
					"numinlets" : 1,
					"patching_rect" : [ 596.0, 65.0, 42.0, 145.0 ],
					"numoutlets" : 1
				}

			}
, 			{
				"box" : 				{
					"maxclass" : "toggle",
					"outlettype" : [ "int" ],
					"id" : "obj-10",
					"numinlets" : 1,
					"patching_rect" : [ 519.0, 197.0, 25.0, 25.0 ],
					"numoutlets" : 1
				}

			}
, 			{
				"box" : 				{
					"maxclass" : "message",
					"text" : "direction $1",
					"fontsize" : 12.0,
					"outlettype" : [ "" ],
					"id" : "obj-11",
					"fontname" : "Arial",
					"numinlets" : 2,
					"patching_rect" : [ 519.0, 226.0, 72.0, 18.0 ],
					"numoutlets" : 1
				}

			}
, 			{
				"box" : 				{
					"maxclass" : "number",
					"bgcolor" : [ 0.866667, 0.866667, 0.866667, 1.0 ],
					"htextcolor" : [ 0.870588, 0.870588, 0.870588, 1.0 ],
					"fontsize" : 12.0,
					"outlettype" : [ "int", "bang" ],
					"triscale" : 0.9,
					"id" : "obj-12",
					"fontname" : "Arial",
					"numinlets" : 1,
					"patching_rect" : [ 468.0, 226.0, 37.0, 20.0 ],
					"numoutlets" : 2
				}

			}
, 			{
				"box" : 				{
					"maxclass" : "slider",
					"orientation" : 2,
					"outlettype" : [ "" ],
					"id" : "obj-13",
					"size" : 1024.0,
					"numinlets" : 1,
					"patching_rect" : [ 468.0, 67.0, 42.0, 145.0 ],
					"numoutlets" : 1
				}

			}
, 			{
				"box" : 				{
					"maxclass" : "toggle",
					"outlettype" : [ "int" ],
					"id" : "obj-14",
					"numinlets" : 1,
					"patching_rect" : [ 391.0, 198.0, 25.0, 25.0 ],
					"numoutlets" : 1
				}

			}
, 			{
				"box" : 				{
					"maxclass" : "message",
					"text" : "direction $1",
					"fontsize" : 12.0,
					"outlettype" : [ "" ],
					"id" : "obj-15",
					"fontname" : "Arial",
					"numinlets" : 2,
					"patching_rect" : [ 391.0, 227.0, 72.0, 18.0 ],
					"numoutlets" : 1
				}

			}
, 			{
				"box" : 				{
					"maxclass" : "number",
					"bgcolor" : [ 0.866667, 0.866667, 0.866667, 1.0 ],
					"htextcolor" : [ 0.870588, 0.870588, 0.870588, 1.0 ],
					"fontsize" : 12.0,
					"outlettype" : [ "int", "bang" ],
					"triscale" : 0.9,
					"id" : "obj-16",
					"fontname" : "Arial",
					"numinlets" : 1,
					"patching_rect" : [ 340.0, 227.0, 37.0, 20.0 ],
					"numoutlets" : 2
				}

			}
, 			{
				"box" : 				{
					"maxclass" : "slider",
					"orientation" : 2,
					"outlettype" : [ "" ],
					"id" : "obj-17",
					"size" : 1024.0,
					"numinlets" : 1,
					"patching_rect" : [ 340.0, 68.0, 42.0, 145.0 ],
					"numoutlets" : 1
				}

			}
, 			{
				"box" : 				{
					"maxclass" : "toggle",
					"outlettype" : [ "int" ],
					"id" : "obj-18",
					"numinlets" : 1,
					"patching_rect" : [ 257.0, 199.0, 25.0, 25.0 ],
					"numoutlets" : 1
				}

			}
, 			{
				"box" : 				{
					"maxclass" : "message",
					"text" : "direction $1",
					"fontsize" : 12.0,
					"outlettype" : [ "" ],
					"id" : "obj-19",
					"fontname" : "Arial",
					"numinlets" : 2,
					"patching_rect" : [ 257.0, 228.0, 72.0, 18.0 ],
					"numoutlets" : 1
				}

			}
, 			{
				"box" : 				{
					"maxclass" : "number",
					"bgcolor" : [ 0.866667, 0.866667, 0.866667, 1.0 ],
					"htextcolor" : [ 0.870588, 0.870588, 0.870588, 1.0 ],
					"fontsize" : 12.0,
					"outlettype" : [ "int", "bang" ],
					"triscale" : 0.9,
					"id" : "obj-20",
					"fontname" : "Arial",
					"numinlets" : 1,
					"patching_rect" : [ 209.0, 228.0, 37.0, 20.0 ],
					"numoutlets" : 2
				}

			}
, 			{
				"box" : 				{
					"maxclass" : "slider",
					"orientation" : 2,
					"outlettype" : [ "" ],
					"id" : "obj-21",
					"size" : 1024.0,
					"numinlets" : 1,
					"patching_rect" : [ 209.0, 69.0, 42.0, 145.0 ],
					"numoutlets" : 1
				}

			}
, 			{
				"box" : 				{
					"maxclass" : "newobj",
					"text" : "mc.motor",
					"fontsize" : 12.0,
					"outlettype" : [ "" ],
					"id" : "obj-22",
					"fontname" : "Arial",
					"numinlets" : 4,
					"patching_rect" : [ 209.0, 259.0, 457.0, 20.0 ],
					"numoutlets" : 1
				}

			}
, 			{
				"box" : 				{
					"maxclass" : "comment",
					"text" : "0 -",
					"fontsize" : 12.0,
					"id" : "obj-23",
					"fontname" : "Arial",
					"numinlets" : 1,
					"patching_rect" : [ 185.0, 202.0, 26.0, 20.0 ],
					"numoutlets" : 0
				}

			}
, 			{
				"box" : 				{
					"maxclass" : "comment",
					"text" : "mc.motor",
					"fontsize" : 18.0,
					"frgb" : [ 0.082353, 0.219608, 0.035294, 1.0 ],
					"id" : "obj-25",
					"fontname" : "Arial",
					"numinlets" : 1,
					"patching_rect" : [ 13.0, 11.0, 126.0, 27.0 ],
					"numoutlets" : 0,
					"textcolor" : [ 0.082353, 0.219608, 0.035294, 1.0 ]
				}

			}
, 			{
				"box" : 				{
					"maxclass" : "comment",
					"text" : "Control DC motors with the Make Controller Kit.",
					"fontsize" : 12.0,
					"id" : "obj-26",
					"fontname" : "Arial",
					"numinlets" : 1,
					"patching_rect" : [ 13.0, 36.0, 385.0, 20.0 ],
					"numoutlets" : 0
				}

			}
, 			{
				"box" : 				{
					"maxclass" : "panel",
					"bgcolor" : [ 0.905882, 0.905882, 0.905882, 1.0 ],
					"id" : "obj-27",
					"numinlets" : 1,
					"patching_rect" : [ 8.0, 6.0, 692.0, 54.0 ],
					"rounded" : 0,
					"numoutlets" : 0
				}

			}
, 			{
				"box" : 				{
					"maxclass" : "comment",
					"text" : "Click on the gate to switch whether the messages get sent via Ethernet or USB. Ethernet is on the left, USB on the right.",
					"linecount" : 3,
					"fontsize" : 12.0,
					"id" : "obj-28",
					"fontname" : "Arial",
					"numinlets" : 1,
					"patching_rect" : [ 359.0, 295.0, 260.0, 48.0 ],
					"numoutlets" : 0
				}

			}
, 			{
				"box" : 				{
					"maxclass" : "newobj",
					"text" : "s to-mc-usb",
					"fontsize" : 12.0,
					"id" : "obj-29",
					"fontname" : "Arial",
					"numinlets" : 1,
					"patching_rect" : [ 480.0, 374.0, 73.0, 20.0 ],
					"numoutlets" : 0
				}

			}
, 			{
				"box" : 				{
					"maxclass" : "gswitch2",
					"outlettype" : [ "", "" ],
					"id" : "obj-30",
					"numinlets" : 2,
					"patching_rect" : [ 315.0, 305.0, 39.0, 32.0 ],
					"numoutlets" : 2
				}

			}
, 			{
				"box" : 				{
					"maxclass" : "newobj",
					"text" : "t b",
					"hidden" : 1,
					"fontsize" : 12.0,
					"outlettype" : [ "bang" ],
					"id" : "obj-31",
					"fontname" : "Arial",
					"numinlets" : 1,
					"patching_rect" : [ 984.0, 240.0, 22.0, 20.0 ],
					"numoutlets" : 1
				}

			}
, 			{
				"box" : 				{
					"maxclass" : "newobj",
					"text" : "t b",
					"hidden" : 1,
					"fontsize" : 12.0,
					"outlettype" : [ "bang" ],
					"id" : "obj-32",
					"fontname" : "Arial",
					"numinlets" : 1,
					"patching_rect" : [ 971.0, 181.0, 22.0, 20.0 ],
					"numoutlets" : 1
				}

			}
, 			{
				"box" : 				{
					"maxclass" : "newobj",
					"text" : "t b",
					"hidden" : 1,
					"fontsize" : 12.0,
					"outlettype" : [ "bang" ],
					"id" : "obj-33",
					"fontname" : "Arial",
					"numinlets" : 1,
					"patching_rect" : [ 978.0, 143.0, 22.0, 20.0 ],
					"numoutlets" : 1
				}

			}
, 			{
				"box" : 				{
					"maxclass" : "message",
					"text" : ";\rmax launch_browser http://www.makingthings.com/forum",
					"linecount" : 2,
					"hidden" : 1,
					"fontsize" : 12.0,
					"outlettype" : [ "" ],
					"id" : "obj-34",
					"fontname" : "Arial",
					"numinlets" : 2,
					"patching_rect" : [ 1006.0, 277.0, 370.0, 32.0 ],
					"numoutlets" : 1
				}

			}
, 			{
				"box" : 				{
					"maxclass" : "message",
					"text" : ";\rmax launch_browser http://www.makingthings.com/ref/firmware/html/group___o_s_c.html",
					"linecount" : 3,
					"hidden" : 1,
					"fontsize" : 12.0,
					"outlettype" : [ "" ],
					"id" : "obj-35",
					"fontname" : "Arial",
					"numinlets" : 2,
					"patching_rect" : [ 1009.0, 214.0, 369.0, 46.0 ],
					"numoutlets" : 1
				}

			}
, 			{
				"box" : 				{
					"maxclass" : "message",
					"text" : ";\rmax launch_browser http://www.makingthings.com/documentation/tutorial/max-msp",
					"linecount" : 2,
					"hidden" : 1,
					"fontsize" : 12.0,
					"outlettype" : [ "" ],
					"id" : "obj-36",
					"fontname" : "Arial",
					"numinlets" : 2,
					"patching_rect" : [ 1011.0, 170.0, 455.0, 32.0 ],
					"numoutlets" : 1
				}

			}
, 			{
				"box" : 				{
					"maxclass" : "message",
					"text" : "Make Controller Kit Discussion Forum",
					"fontsize" : 12.0,
					"outlettype" : [ "" ],
					"id" : "obj-37",
					"fontname" : "Arial",
					"numinlets" : 2,
					"patching_rect" : [ 720.0, 172.0, 215.0, 18.0 ],
					"numoutlets" : 1
				}

			}
, 			{
				"box" : 				{
					"maxclass" : "message",
					"text" : "Make Controller Kit OSC Reference",
					"fontsize" : 12.0,
					"outlettype" : [ "" ],
					"id" : "obj-38",
					"fontname" : "Arial",
					"numinlets" : 2,
					"patching_rect" : [ 720.0, 148.0, 199.0, 18.0 ],
					"numoutlets" : 1
				}

			}
, 			{
				"box" : 				{
					"maxclass" : "message",
					"text" : "Make Controller Max/MSP Tutorial",
					"fontsize" : 12.0,
					"outlettype" : [ "" ],
					"id" : "obj-39",
					"fontname" : "Arial",
					"numinlets" : 2,
					"patching_rect" : [ 720.0, 125.0, 203.0, 18.0 ],
					"numoutlets" : 1
				}

			}
, 			{
				"box" : 				{
					"maxclass" : "comment",
					"text" : "Check the MakingThings website for more info and reference material:",
					"linecount" : 2,
					"fontsize" : 12.0,
					"id" : "obj-40",
					"fontname" : "Arial",
					"numinlets" : 1,
					"patching_rect" : [ 721.0, 92.0, 221.0, 34.0 ],
					"numoutlets" : 0
				}

			}
, 			{
				"box" : 				{
					"maxclass" : "comment",
					"text" : "<- Adjust this to the address of your board.",
					"linecount" : 2,
					"fontsize" : 12.0,
					"id" : "obj-41",
					"fontname" : "Arial",
					"numinlets" : 1,
					"patching_rect" : [ 320.0, 366.0, 153.0, 34.0 ],
					"numoutlets" : 0
				}

			}
, 			{
				"box" : 				{
					"maxclass" : "fpic",
					"id" : "obj-42",
					"numinlets" : 1,
					"patching_rect" : [ 709.0, 7.0, 226.0, 80.0 ],
					"pic" : "logo.png",
					"numoutlets" : 0
				}

			}
, 			{
				"box" : 				{
					"maxclass" : "newobj",
					"text" : "udpsend 192.168.0.200 10000",
					"fontsize" : 12.0,
					"id" : "obj-43",
					"fontname" : "Arial",
					"numinlets" : 1,
					"patching_rect" : [ 135.0, 371.0, 179.0, 20.0 ],
					"numoutlets" : 0
				}

			}
 ],
		"lines" : [ 			{
				"patchline" : 				{
					"source" : [ "obj-46", 0 ],
					"destination" : [ "obj-44", 0 ],
					"hidden" : 1,
					"midpoints" : [  ]
				}

			}
, 			{
				"patchline" : 				{
					"source" : [ "obj-44", 0 ],
					"destination" : [ "obj-45", 0 ],
					"hidden" : 1,
					"midpoints" : [  ]
				}

			}
, 			{
				"patchline" : 				{
					"source" : [ "obj-30", 1 ],
					"destination" : [ "obj-29", 0 ],
					"hidden" : 0,
					"midpoints" : [ 344.5, 348.0, 489.5, 348.0 ]
				}

			}
, 			{
				"patchline" : 				{
					"source" : [ "obj-60", 0 ],
					"destination" : [ "obj-58", 0 ],
					"hidden" : 0,
					"midpoints" : [  ]
				}

			}
, 			{
				"patchline" : 				{
					"source" : [ "obj-58", 0 ],
					"destination" : [ "obj-59", 0 ],
					"hidden" : 0,
					"midpoints" : [  ]
				}

			}
, 			{
				"patchline" : 				{
					"source" : [ "obj-31", 0 ],
					"destination" : [ "obj-34", 0 ],
					"hidden" : 1,
					"midpoints" : [  ]
				}

			}
, 			{
				"patchline" : 				{
					"source" : [ "obj-33", 0 ],
					"destination" : [ "obj-36", 0 ],
					"hidden" : 1,
					"midpoints" : [  ]
				}

			}
, 			{
				"patchline" : 				{
					"source" : [ "obj-32", 0 ],
					"destination" : [ "obj-35", 0 ],
					"hidden" : 1,
					"midpoints" : [  ]
				}

			}
, 			{
				"patchline" : 				{
					"source" : [ "obj-37", 0 ],
					"destination" : [ "obj-31", 0 ],
					"hidden" : 1,
					"midpoints" : [  ]
				}

			}
, 			{
				"patchline" : 				{
					"source" : [ "obj-39", 0 ],
					"destination" : [ "obj-33", 0 ],
					"hidden" : 1,
					"midpoints" : [  ]
				}

			}
, 			{
				"patchline" : 				{
					"source" : [ "obj-38", 0 ],
					"destination" : [ "obj-32", 0 ],
					"hidden" : 1,
					"midpoints" : [  ]
				}

			}
, 			{
				"patchline" : 				{
					"source" : [ "obj-6", 0 ],
					"destination" : [ "obj-7", 0 ],
					"hidden" : 0,
					"midpoints" : [  ]
				}

			}
, 			{
				"patchline" : 				{
					"source" : [ "obj-4", 0 ],
					"destination" : [ "obj-6", 0 ],
					"hidden" : 1,
					"midpoints" : [  ]
				}

			}
, 			{
				"patchline" : 				{
					"source" : [ "obj-7", 0 ],
					"destination" : [ "obj-22", 3 ],
					"hidden" : 0,
					"midpoints" : [  ]
				}

			}
, 			{
				"patchline" : 				{
					"source" : [ "obj-8", 0 ],
					"destination" : [ "obj-22", 3 ],
					"hidden" : 0,
					"midpoints" : [  ]
				}

			}
, 			{
				"patchline" : 				{
					"source" : [ "obj-9", 0 ],
					"destination" : [ "obj-8", 0 ],
					"hidden" : 0,
					"midpoints" : [  ]
				}

			}
, 			{
				"patchline" : 				{
					"source" : [ "obj-10", 0 ],
					"destination" : [ "obj-11", 0 ],
					"hidden" : 0,
					"midpoints" : [  ]
				}

			}
, 			{
				"patchline" : 				{
					"source" : [ "obj-4", 0 ],
					"destination" : [ "obj-10", 0 ],
					"hidden" : 1,
					"midpoints" : [  ]
				}

			}
, 			{
				"patchline" : 				{
					"source" : [ "obj-11", 0 ],
					"destination" : [ "obj-22", 2 ],
					"hidden" : 0,
					"midpoints" : [  ]
				}

			}
, 			{
				"patchline" : 				{
					"source" : [ "obj-12", 0 ],
					"destination" : [ "obj-22", 2 ],
					"hidden" : 0,
					"midpoints" : [  ]
				}

			}
, 			{
				"patchline" : 				{
					"source" : [ "obj-13", 0 ],
					"destination" : [ "obj-12", 0 ],
					"hidden" : 0,
					"midpoints" : [  ]
				}

			}
, 			{
				"patchline" : 				{
					"source" : [ "obj-5", 0 ],
					"destination" : [ "obj-4", 0 ],
					"hidden" : 1,
					"midpoints" : [  ]
				}

			}
, 			{
				"patchline" : 				{
					"source" : [ "obj-14", 0 ],
					"destination" : [ "obj-15", 0 ],
					"hidden" : 0,
					"midpoints" : [  ]
				}

			}
, 			{
				"patchline" : 				{
					"source" : [ "obj-4", 0 ],
					"destination" : [ "obj-14", 0 ],
					"hidden" : 1,
					"midpoints" : [  ]
				}

			}
, 			{
				"patchline" : 				{
					"source" : [ "obj-22", 0 ],
					"destination" : [ "obj-30", 1 ],
					"hidden" : 0,
					"midpoints" : [ 218.5, 286.0, 344.5, 286.0 ]
				}

			}
, 			{
				"patchline" : 				{
					"source" : [ "obj-15", 0 ],
					"destination" : [ "obj-22", 1 ],
					"hidden" : 0,
					"midpoints" : [  ]
				}

			}
, 			{
				"patchline" : 				{
					"source" : [ "obj-16", 0 ],
					"destination" : [ "obj-22", 1 ],
					"hidden" : 0,
					"midpoints" : [  ]
				}

			}
, 			{
				"patchline" : 				{
					"source" : [ "obj-17", 0 ],
					"destination" : [ "obj-16", 0 ],
					"hidden" : 0,
					"midpoints" : [  ]
				}

			}
, 			{
				"patchline" : 				{
					"source" : [ "obj-18", 0 ],
					"destination" : [ "obj-19", 0 ],
					"hidden" : 0,
					"midpoints" : [  ]
				}

			}
, 			{
				"patchline" : 				{
					"source" : [ "obj-4", 0 ],
					"destination" : [ "obj-18", 0 ],
					"hidden" : 1,
					"midpoints" : [  ]
				}

			}
, 			{
				"patchline" : 				{
					"source" : [ "obj-19", 0 ],
					"destination" : [ "obj-22", 0 ],
					"hidden" : 0,
					"midpoints" : [  ]
				}

			}
, 			{
				"patchline" : 				{
					"source" : [ "obj-20", 0 ],
					"destination" : [ "obj-22", 0 ],
					"hidden" : 0,
					"midpoints" : [  ]
				}

			}
, 			{
				"patchline" : 				{
					"source" : [ "obj-21", 0 ],
					"destination" : [ "obj-20", 0 ],
					"hidden" : 0,
					"midpoints" : [  ]
				}

			}
, 			{
				"patchline" : 				{
					"source" : [ "obj-30", 0 ],
					"destination" : [ "obj-43", 0 ],
					"hidden" : 0,
					"midpoints" : [ 324.5, 349.0, 144.5, 349.0 ]
				}

			}
 ]
	}

}
