{
	"patcher" : 	{
		"fileversion" : 1,
		"rect" : [ 175.0, 106.0, 884.0, 498.0 ],
		"bglocked" : 0,
		"defrect" : [ 175.0, 106.0, 884.0, 498.0 ],
		"openrect" : [ 0.0, 0.0, 0.0, 0.0 ],
		"openinpresentation" : 0,
		"default_fontsize" : 12.0,
		"default_fontface" : 0,
		"default_fontname" : "Arial",
		"gridonopen" : 0,
		"gridsize" : [ 15.0, 15.0 ],
		"gridsnaponopen" : 0,
		"toolbarvisible" : 1,
		"boxanimatetime" : 200,
		"imprint" : 0,
		"metadata" : [  ],
		"boxes" : [ 			{
				"box" : 				{
					"maxclass" : "comment",
					"text" : "Only one mc.usb object is required/allowed per patch - use the send (s) and receive (r) objects to pass info to and from it.",
					"linecount" : 4,
					"fontsize" : 12.0,
					"id" : "obj-57",
					"numinlets" : 1,
					"fontname" : "Arial",
					"patching_rect" : [ 495.0, 302.0, 192.0, 62.0 ],
					"numoutlets" : 0
				}

			}
, 			{
				"box" : 				{
					"maxclass" : "newobj",
					"text" : "r to-mc-usb",
					"outlettype" : [ "" ],
					"fontsize" : 12.0,
					"id" : "obj-60",
					"numinlets" : 0,
					"fontname" : "Arial",
					"patching_rect" : [ 701.0, 297.0, 71.0, 20.0 ],
					"numoutlets" : 1
				}

			}
, 			{
				"box" : 				{
					"maxclass" : "newobj",
					"text" : "s from-mc-usb",
					"fontsize" : 12.0,
					"id" : "obj-59",
					"numinlets" : 1,
					"fontname" : "Arial",
					"patching_rect" : [ 701.0, 348.0, 87.0, 20.0 ],
					"numoutlets" : 0
				}

			}
, 			{
				"box" : 				{
					"maxclass" : "newobj",
					"text" : "mc.usb",
					"outlettype" : [ "" ],
					"fontsize" : 12.0,
					"id" : "obj-58",
					"numinlets" : 1,
					"fontname" : "Arial",
					"patching_rect" : [ 701.0, 323.0, 51.0, 20.0 ],
					"numoutlets" : 1
				}

			}
, 			{
				"box" : 				{
					"maxclass" : "panel",
					"bgcolor" : [ 0.807843, 0.807843, 0.807843, 1.0 ],
					"id" : "obj-61",
					"numinlets" : 1,
					"patching_rect" : [ 691.0, 285.0, 110.0, 97.0 ],
					"numoutlets" : 0
				}

			}
, 			{
				"box" : 				{
					"maxclass" : "newobj",
					"text" : "r from-mc-usb",
					"outlettype" : [ "" ],
					"fontsize" : 12.0,
					"id" : "obj-50",
					"numinlets" : 0,
					"fontname" : "Arial",
					"patching_rect" : [ 448.0, 270.0, 85.0, 20.0 ],
					"numoutlets" : 1
				}

			}
, 			{
				"box" : 				{
					"maxclass" : "newobj",
					"text" : "mc.dipswitch",
					"outlettype" : [ "int", "int", "int", "int", "int", "int", "int", "int" ],
					"fontsize" : 12.0,
					"id" : "obj-3",
					"numinlets" : 2,
					"fontname" : "Arial",
					"patching_rect" : [ 140.0, 311.0, 327.0, 20.0 ],
					"numoutlets" : 8
				}

			}
, 			{
				"box" : 				{
					"maxclass" : "comment",
					"text" : "7",
					"fontsize" : 12.0,
					"id" : "obj-4",
					"numinlets" : 1,
					"fontname" : "Arial",
					"patching_rect" : [ 450.0, 378.0, 26.0, 20.0 ],
					"numoutlets" : 0
				}

			}
, 			{
				"box" : 				{
					"maxclass" : "comment",
					"text" : "6",
					"fontsize" : 12.0,
					"id" : "obj-5",
					"numinlets" : 1,
					"fontname" : "Arial",
					"patching_rect" : [ 406.0, 378.0, 26.0, 20.0 ],
					"numoutlets" : 0
				}

			}
, 			{
				"box" : 				{
					"maxclass" : "comment",
					"text" : "5",
					"fontsize" : 12.0,
					"id" : "obj-6",
					"numinlets" : 1,
					"fontname" : "Arial",
					"patching_rect" : [ 362.0, 378.0, 26.0, 20.0 ],
					"numoutlets" : 0
				}

			}
, 			{
				"box" : 				{
					"maxclass" : "comment",
					"text" : "4",
					"fontsize" : 12.0,
					"id" : "obj-7",
					"numinlets" : 1,
					"fontname" : "Arial",
					"patching_rect" : [ 318.0, 378.0, 26.0, 20.0 ],
					"numoutlets" : 0
				}

			}
, 			{
				"box" : 				{
					"maxclass" : "comment",
					"text" : "3",
					"fontsize" : 12.0,
					"id" : "obj-8",
					"numinlets" : 1,
					"fontname" : "Arial",
					"patching_rect" : [ 274.0, 378.0, 26.0, 20.0 ],
					"numoutlets" : 0
				}

			}
, 			{
				"box" : 				{
					"maxclass" : "comment",
					"text" : "2",
					"fontsize" : 12.0,
					"id" : "obj-9",
					"numinlets" : 1,
					"fontname" : "Arial",
					"patching_rect" : [ 230.0, 378.0, 26.0, 20.0 ],
					"numoutlets" : 0
				}

			}
, 			{
				"box" : 				{
					"maxclass" : "comment",
					"text" : "1",
					"fontsize" : 12.0,
					"id" : "obj-10",
					"numinlets" : 1,
					"fontname" : "Arial",
					"patching_rect" : [ 186.0, 378.0, 26.0, 20.0 ],
					"numoutlets" : 0
				}

			}
, 			{
				"box" : 				{
					"maxclass" : "comment",
					"text" : "0",
					"fontsize" : 12.0,
					"id" : "obj-11",
					"numinlets" : 1,
					"fontname" : "Arial",
					"patching_rect" : [ 142.0, 378.0, 26.0, 20.0 ],
					"numoutlets" : 0
				}

			}
, 			{
				"box" : 				{
					"maxclass" : "toggle",
					"outlettype" : [ "int" ],
					"id" : "obj-12",
					"numinlets" : 1,
					"patching_rect" : [ 448.0, 346.0, 31.0, 31.0 ],
					"numoutlets" : 1
				}

			}
, 			{
				"box" : 				{
					"maxclass" : "toggle",
					"outlettype" : [ "int" ],
					"id" : "obj-13",
					"numinlets" : 1,
					"patching_rect" : [ 404.0, 346.0, 31.0, 31.0 ],
					"numoutlets" : 1
				}

			}
, 			{
				"box" : 				{
					"maxclass" : "toggle",
					"outlettype" : [ "int" ],
					"id" : "obj-14",
					"numinlets" : 1,
					"patching_rect" : [ 360.0, 346.0, 31.0, 31.0 ],
					"numoutlets" : 1
				}

			}
, 			{
				"box" : 				{
					"maxclass" : "toggle",
					"outlettype" : [ "int" ],
					"id" : "obj-15",
					"numinlets" : 1,
					"patching_rect" : [ 316.0, 346.0, 31.0, 31.0 ],
					"numoutlets" : 1
				}

			}
, 			{
				"box" : 				{
					"maxclass" : "toggle",
					"outlettype" : [ "int" ],
					"id" : "obj-16",
					"numinlets" : 1,
					"patching_rect" : [ 272.0, 346.0, 31.0, 31.0 ],
					"numoutlets" : 1
				}

			}
, 			{
				"box" : 				{
					"maxclass" : "toggle",
					"outlettype" : [ "int" ],
					"id" : "obj-17",
					"numinlets" : 1,
					"patching_rect" : [ 228.0, 346.0, 31.0, 31.0 ],
					"numoutlets" : 1
				}

			}
, 			{
				"box" : 				{
					"maxclass" : "toggle",
					"outlettype" : [ "int" ],
					"id" : "obj-18",
					"numinlets" : 1,
					"patching_rect" : [ 184.0, 346.0, 31.0, 31.0 ],
					"numoutlets" : 1
				}

			}
, 			{
				"box" : 				{
					"maxclass" : "toggle",
					"outlettype" : [ "int" ],
					"id" : "obj-19",
					"numinlets" : 1,
					"patching_rect" : [ 140.0, 346.0, 31.0, 31.0 ],
					"numoutlets" : 1
				}

			}
, 			{
				"box" : 				{
					"maxclass" : "newobj",
					"text" : "udpreceive 10000 MakeCtrl",
					"outlettype" : [ "" ],
					"fontsize" : 12.0,
					"id" : "obj-20",
					"numinlets" : 1,
					"fontname" : "Arial",
					"patching_rect" : [ 96.0, 270.0, 178.0, 20.0 ],
					"numoutlets" : 1
				}

			}
, 			{
				"box" : 				{
					"maxclass" : "comment",
					"text" : "mc.dipswitch sends out a 0 or a 1 for each channel. these toggles simply show which ones are on and which are off.",
					"linecount" : 2,
					"fontsize" : 12.0,
					"id" : "obj-21",
					"numinlets" : 1,
					"fontname" : "Arial",
					"patching_rect" : [ 149.0, 402.0, 324.0, 34.0 ],
					"numoutlets" : 0
				}

			}
, 			{
				"box" : 				{
					"maxclass" : "comment",
					"text" : "mc.dipswitch receives messages from the Make Controller Kit in its inlets, and sends 1 or 0 out each of its outlets depending on whether that channel of the DIP switch is on or off.",
					"linecount" : 5,
					"fontsize" : 12.0,
					"id" : "obj-23",
					"numinlets" : 1,
					"fontname" : "Arial",
					"patching_rect" : [ 37.0, 79.0, 216.0, 75.0 ],
					"numoutlets" : 0
				}

			}
, 			{
				"box" : 				{
					"maxclass" : "comment",
					"text" : "mc.dipswitch",
					"fontsize" : 18.0,
					"frgb" : [ 0.082353, 0.219608, 0.035294, 1.0 ],
					"id" : "obj-24",
					"numinlets" : 1,
					"fontname" : "Arial",
					"patching_rect" : [ 12.0, 11.0, 122.0, 27.0 ],
					"numoutlets" : 0,
					"textcolor" : [ 0.082353, 0.219608, 0.035294, 1.0 ]
				}

			}
, 			{
				"box" : 				{
					"maxclass" : "comment",
					"text" : "Read dipswitch messages back from the Make Controller Kit.",
					"fontsize" : 12.0,
					"id" : "obj-25",
					"numinlets" : 1,
					"fontname" : "Arial",
					"patching_rect" : [ 12.0, 36.0, 386.0, 20.0 ],
					"numoutlets" : 0
				}

			}
, 			{
				"box" : 				{
					"maxclass" : "panel",
					"bgcolor" : [ 0.905882, 0.905882, 0.905882, 1.0 ],
					"id" : "obj-26",
					"numinlets" : 1,
					"patching_rect" : [ 7.0, 6.0, 623.0, 55.0 ],
					"numoutlets" : 0,
					"rounded" : 0
				}

			}
, 			{
				"box" : 				{
					"maxclass" : "comment",
					"text" : "Click on the gate to switch whether the messages get sent via Ethernet or USB. Ethernet is on the left, USB on the right.",
					"linecount" : 3,
					"fontsize" : 12.0,
					"id" : "obj-27",
					"numinlets" : 1,
					"fontname" : "Arial",
					"patching_rect" : [ 321.0, 147.0, 260.0, 48.0 ],
					"numoutlets" : 0
				}

			}
, 			{
				"box" : 				{
					"maxclass" : "newobj",
					"text" : "s to-mc-usb",
					"fontsize" : 12.0,
					"id" : "obj-28",
					"numinlets" : 1,
					"fontname" : "Arial",
					"patching_rect" : [ 448.0, 220.0, 73.0, 20.0 ],
					"numoutlets" : 0
				}

			}
, 			{
				"box" : 				{
					"maxclass" : "gswitch2",
					"outlettype" : [ "", "" ],
					"int" : 1,
					"id" : "obj-29",
					"numinlets" : 2,
					"patching_rect" : [ 276.0, 153.0, 39.0, 32.0 ],
					"numoutlets" : 2
				}

			}
, 			{
				"box" : 				{
					"maxclass" : "comment",
					"text" : "<- Says, \"read the value of the dip switch.\"",
					"fontsize" : 12.0,
					"id" : "obj-30",
					"numinlets" : 1,
					"fontname" : "Arial",
					"patching_rect" : [ 398.0, 117.0, 243.0, 20.0 ],
					"numoutlets" : 0
				}

			}
, 			{
				"box" : 				{
					"maxclass" : "newobj",
					"text" : "t b",
					"outlettype" : [ "bang" ],
					"hidden" : 1,
					"fontsize" : 12.0,
					"id" : "obj-32",
					"numinlets" : 1,
					"fontname" : "Arial",
					"patching_rect" : [ 855.0, 293.0, 22.0, 20.0 ],
					"numoutlets" : 1
				}

			}
, 			{
				"box" : 				{
					"maxclass" : "newobj",
					"text" : "t b",
					"outlettype" : [ "bang" ],
					"hidden" : 1,
					"fontsize" : 12.0,
					"id" : "obj-33",
					"numinlets" : 1,
					"fontname" : "Arial",
					"patching_rect" : [ 797.0, 229.0, 22.0, 20.0 ],
					"numoutlets" : 1
				}

			}
, 			{
				"box" : 				{
					"maxclass" : "newobj",
					"text" : "t b",
					"outlettype" : [ "bang" ],
					"hidden" : 1,
					"fontsize" : 12.0,
					"id" : "obj-34",
					"numinlets" : 1,
					"fontname" : "Arial",
					"patching_rect" : [ 826.0, 199.0, 22.0, 20.0 ],
					"numoutlets" : 1
				}

			}
, 			{
				"box" : 				{
					"maxclass" : "message",
					"text" : ";\rmax launch_browser http://www.makingthings.com/forum",
					"linecount" : 2,
					"outlettype" : [ "" ],
					"hidden" : 1,
					"fontsize" : 12.0,
					"id" : "obj-35",
					"numinlets" : 2,
					"fontname" : "Arial",
					"patching_rect" : [ 977.0, 370.0, 370.0, 32.0 ],
					"numoutlets" : 1
				}

			}
, 			{
				"box" : 				{
					"maxclass" : "message",
					"text" : ";\rmax launch_browser http://www.makingthings.com/ref/firmware/html/group___o_s_c.html",
					"linecount" : 3,
					"outlettype" : [ "" ],
					"hidden" : 1,
					"fontsize" : 12.0,
					"id" : "obj-36",
					"numinlets" : 2,
					"fontname" : "Arial",
					"patching_rect" : [ 889.0, 290.0, 369.0, 46.0 ],
					"numoutlets" : 1
				}

			}
, 			{
				"box" : 				{
					"maxclass" : "message",
					"text" : ";\rmax launch_browser http://www.makingthings.com/documentation/tutorial/max-msp",
					"linecount" : 2,
					"outlettype" : [ "" ],
					"hidden" : 1,
					"fontsize" : 12.0,
					"id" : "obj-37",
					"numinlets" : 2,
					"fontname" : "Arial",
					"patching_rect" : [ 913.0, 245.0, 455.0, 32.0 ],
					"numoutlets" : 1
				}

			}
, 			{
				"box" : 				{
					"maxclass" : "message",
					"text" : "Make Controller Kit Discussion Forum",
					"outlettype" : [ "" ],
					"fontsize" : 12.0,
					"id" : "obj-38",
					"numinlets" : 2,
					"fontname" : "Arial",
					"patching_rect" : [ 657.0, 168.0, 219.0, 18.0 ],
					"numoutlets" : 1
				}

			}
, 			{
				"box" : 				{
					"maxclass" : "message",
					"text" : "Make Controller Kit OSC Reference",
					"outlettype" : [ "" ],
					"fontsize" : 12.0,
					"id" : "obj-39",
					"numinlets" : 2,
					"fontname" : "Arial",
					"patching_rect" : [ 657.0, 145.0, 203.0, 18.0 ],
					"numoutlets" : 1
				}

			}
, 			{
				"box" : 				{
					"maxclass" : "message",
					"text" : "Make Controller Max/MSP Tutorial",
					"outlettype" : [ "" ],
					"fontsize" : 12.0,
					"id" : "obj-40",
					"numinlets" : 2,
					"fontname" : "Arial",
					"patching_rect" : [ 657.0, 123.0, 207.0, 18.0 ],
					"numoutlets" : 1
				}

			}
, 			{
				"box" : 				{
					"maxclass" : "comment",
					"text" : "Check the MakingThings website for more info and reference material:",
					"linecount" : 2,
					"fontsize" : 12.0,
					"id" : "obj-41",
					"numinlets" : 1,
					"fontname" : "Arial",
					"patching_rect" : [ 658.0, 90.0, 221.0, 34.0 ],
					"numoutlets" : 0
				}

			}
, 			{
				"box" : 				{
					"maxclass" : "comment",
					"text" : "<- Click here to start reading.",
					"fontsize" : 12.0,
					"id" : "obj-42",
					"numinlets" : 1,
					"fontname" : "Arial",
					"patching_rect" : [ 314.0, 62.0, 174.0, 20.0 ],
					"numoutlets" : 0
				}

			}
, 			{
				"box" : 				{
					"maxclass" : "comment",
					"text" : "<- Adjust this to the address of your board.",
					"linecount" : 2,
					"fontsize" : 12.0,
					"id" : "obj-43",
					"numinlets" : 1,
					"fontname" : "Arial",
					"patching_rect" : [ 301.0, 214.0, 135.0, 34.0 ],
					"numoutlets" : 0
				}

			}
, 			{
				"box" : 				{
					"maxclass" : "fpic",
					"id" : "obj-44",
					"numinlets" : 1,
					"patching_rect" : [ 638.0, 5.0, 224.0, 83.0 ],
					"pic" : "logo.png",
					"numoutlets" : 0
				}

			}
, 			{
				"box" : 				{
					"maxclass" : "comment",
					"text" : "On/Off",
					"fontsize" : 12.0,
					"id" : "obj-45",
					"numinlets" : 1,
					"fontname" : "Arial",
					"patching_rect" : [ 255.0, 62.0, 48.0, 20.0 ],
					"numoutlets" : 0
				}

			}
, 			{
				"box" : 				{
					"maxclass" : "message",
					"text" : "/dipswitch/value",
					"outlettype" : [ "" ],
					"fontsize" : 12.0,
					"id" : "obj-46",
					"numinlets" : 2,
					"fontname" : "Arial",
					"patching_rect" : [ 296.0, 116.0, 115.0, 18.0 ],
					"numoutlets" : 1
				}

			}
, 			{
				"box" : 				{
					"maxclass" : "toggle",
					"outlettype" : [ "int" ],
					"id" : "obj-47",
					"numinlets" : 1,
					"patching_rect" : [ 296.0, 61.0, 15.0, 15.0 ],
					"numoutlets" : 1
				}

			}
, 			{
				"box" : 				{
					"maxclass" : "newobj",
					"text" : "metro 100",
					"outlettype" : [ "bang" ],
					"fontsize" : 12.0,
					"id" : "obj-48",
					"numinlets" : 2,
					"fontname" : "Arial",
					"patching_rect" : [ 296.0, 93.0, 75.0, 20.0 ],
					"numoutlets" : 1
				}

			}
, 			{
				"box" : 				{
					"maxclass" : "newobj",
					"text" : "udpsend 192.168.0.200 10000",
					"fontsize" : 12.0,
					"id" : "obj-49",
					"numinlets" : 1,
					"fontname" : "Arial",
					"patching_rect" : [ 96.0, 219.0, 196.0, 20.0 ],
					"numoutlets" : 0
				}

			}
 ],
		"lines" : [ 			{
				"patchline" : 				{
					"source" : [ "obj-60", 0 ],
					"destination" : [ "obj-58", 0 ],
					"hidden" : 0,
					"midpoints" : [  ]
				}

			}
, 			{
				"patchline" : 				{
					"source" : [ "obj-58", 0 ],
					"destination" : [ "obj-59", 0 ],
					"hidden" : 0,
					"midpoints" : [  ]
				}

			}
, 			{
				"patchline" : 				{
					"source" : [ "obj-50", 0 ],
					"destination" : [ "obj-3", 1 ],
					"hidden" : 0,
					"midpoints" : [  ]
				}

			}
, 			{
				"patchline" : 				{
					"source" : [ "obj-29", 1 ],
					"destination" : [ "obj-28", 0 ],
					"hidden" : 0,
					"midpoints" : [ 305.5, 196.0, 457.5, 196.0 ]
				}

			}
, 			{
				"patchline" : 				{
					"source" : [ "obj-32", 0 ],
					"destination" : [ "obj-35", 0 ],
					"hidden" : 1,
					"midpoints" : [  ]
				}

			}
, 			{
				"patchline" : 				{
					"source" : [ "obj-34", 0 ],
					"destination" : [ "obj-37", 0 ],
					"hidden" : 1,
					"midpoints" : [  ]
				}

			}
, 			{
				"patchline" : 				{
					"source" : [ "obj-33", 0 ],
					"destination" : [ "obj-36", 0 ],
					"hidden" : 1,
					"midpoints" : [  ]
				}

			}
, 			{
				"patchline" : 				{
					"source" : [ "obj-38", 0 ],
					"destination" : [ "obj-32", 0 ],
					"hidden" : 1,
					"midpoints" : [  ]
				}

			}
, 			{
				"patchline" : 				{
					"source" : [ "obj-40", 0 ],
					"destination" : [ "obj-34", 0 ],
					"hidden" : 1,
					"midpoints" : [  ]
				}

			}
, 			{
				"patchline" : 				{
					"source" : [ "obj-39", 0 ],
					"destination" : [ "obj-33", 0 ],
					"hidden" : 1,
					"midpoints" : [  ]
				}

			}
, 			{
				"patchline" : 				{
					"source" : [ "obj-3", 7 ],
					"destination" : [ "obj-12", 0 ],
					"hidden" : 0,
					"midpoints" : [  ]
				}

			}
, 			{
				"patchline" : 				{
					"source" : [ "obj-3", 6 ],
					"destination" : [ "obj-13", 0 ],
					"hidden" : 0,
					"midpoints" : [  ]
				}

			}
, 			{
				"patchline" : 				{
					"source" : [ "obj-3", 5 ],
					"destination" : [ "obj-14", 0 ],
					"hidden" : 0,
					"midpoints" : [  ]
				}

			}
, 			{
				"patchline" : 				{
					"source" : [ "obj-3", 4 ],
					"destination" : [ "obj-15", 0 ],
					"hidden" : 0,
					"midpoints" : [  ]
				}

			}
, 			{
				"patchline" : 				{
					"source" : [ "obj-46", 0 ],
					"destination" : [ "obj-29", 1 ],
					"hidden" : 0,
					"midpoints" : [  ]
				}

			}
, 			{
				"patchline" : 				{
					"source" : [ "obj-48", 0 ],
					"destination" : [ "obj-46", 0 ],
					"hidden" : 0,
					"midpoints" : [  ]
				}

			}
, 			{
				"patchline" : 				{
					"source" : [ "obj-47", 0 ],
					"destination" : [ "obj-48", 0 ],
					"hidden" : 0,
					"midpoints" : [  ]
				}

			}
, 			{
				"patchline" : 				{
					"source" : [ "obj-3", 3 ],
					"destination" : [ "obj-16", 0 ],
					"hidden" : 0,
					"midpoints" : [  ]
				}

			}
, 			{
				"patchline" : 				{
					"source" : [ "obj-3", 2 ],
					"destination" : [ "obj-17", 0 ],
					"hidden" : 0,
					"midpoints" : [  ]
				}

			}
, 			{
				"patchline" : 				{
					"source" : [ "obj-3", 1 ],
					"destination" : [ "obj-18", 0 ],
					"hidden" : 0,
					"midpoints" : [  ]
				}

			}
, 			{
				"patchline" : 				{
					"source" : [ "obj-3", 0 ],
					"destination" : [ "obj-19", 0 ],
					"hidden" : 0,
					"midpoints" : [  ]
				}

			}
, 			{
				"patchline" : 				{
					"source" : [ "obj-20", 0 ],
					"destination" : [ "obj-3", 0 ],
					"hidden" : 0,
					"midpoints" : [ 105.5, 297.0, 149.5, 297.0 ]
				}

			}
, 			{
				"patchline" : 				{
					"source" : [ "obj-29", 0 ],
					"destination" : [ "obj-49", 0 ],
					"hidden" : 0,
					"midpoints" : [ 285.5, 197.0, 105.5, 197.0 ]
				}

			}
 ]
	}

}
